<svg xmlns="http://www.w3.org/2000/svg" xmlns:xlink="http://www.w3.org/1999/xlink" viewBox="0 0 256.85 289.99"><defs><style>.cls-1{fill:#fff}.cls-2,.cls-3{fill:#3c3c41}.cls-3{opacity:.2}.cls-25,.cls-29,.cls-3{isolation:isolate}.cls-4{fill:#ccc;fill-opacity:.3}.cls-5{fill:url(#Degradado_sin_nombre)}.cls-6{fill:#50e6ff}.cls-7{fill:#c3f1ff}.cls-8{fill:#9cebff}.cls-9{fill:url(#Degradado_sin_nombre_2)}.cls-10{fill:url(#Degradado_sin_nombre_3)}.cls-11{fill:url(#Degradado_sin_nombre_4)}.cls-12{fill:#005ba1}.cls-13{fill:#0078d4}.cls-14{fill:url(#Degradado_sin_nombre_5)}.cls-15{fill:url(#Degradado_sin_nombre_6)}.cls-16{fill:url(#Degradado_sin_nombre_7)}.cls-17{fill:url(#Degradado_sin_nombre_8)}.cls-18,.cls-19,.cls-20,.cls-26,.cls-28{fill:none;stroke-miterlimit:10}.cls-18,.cls-19,.cls-20{stroke:#3c3c41}.cls-19,.cls-28{stroke-dasharray:1.46 2.43}.cls-20{stroke-dasharray:1.31 2.19}.cls-21{fill:url(#Degradado_sin_nombre_9)}.cls-22{fill:url(#Degradado_sin_nombre_10)}.cls-23{fill:url(#Degradado_sin_nombre_11)}.cls-24{fill:#1490df}.cls-25{fill:#83b9f9}.cls-25,.cls-29{opacity:.4}.cls-26,.cls-28{stroke:#003067}.cls-27{fill:#003067}.cls-29,.cls-30{fill:#6ebcdb}.cls-31{fill:#5db4d7}.cls-32{fill:#e6e6e6}.cls-33{fill:#86d633}.cls-34,.cls-35{font-size:8px}.cls-34,.cls-35,.cls-36,.cls-39,.cls-40,.cls-41,.cls-42{fill:#1e1e1e}.cls-34,.cls-35,.cls-36,.cls-37,.cls-39,.cls-40,.cls-41{font-family:SegoeUI,Segoe UI}.cls-34{letter-spacing:-.02em}.cls-35{letter-spacing:0}.cls-36,.cls-37{font-size:12px}.cls-37{fill:#767676}.cls-38{letter-spacing:-.07em}.cls-39,.cls-40{font-size:12.44px;letter-spacing:0}.cls-40{font-size:11.97px}.cls-41,.cls-42{font-size:11px}.cls-41{letter-spacing:-.02em}.cls-42{font-family:MyriadPro-Regular,Myriad Pro}.cls-42,.cls-43,.cls-44{letter-spacing:-.02em}.cls-45{letter-spacing:-.03em}.cls-46{letter-spacing:-.05em}.cls-47{letter-spacing:-.03em}.cls-48,.cls-49,.cls-50{letter-spacing:-.02em}.cls-51,.cls-52{letter-spacing:-.03em}.cls-53{letter-spacing:-.04em}</style><linearGradient id="Degradado_sin_nombre" x1="35.07" x2="35.07" y1="418.22" y2="399.46" gradientTransform="translate(0 -276.6)" gradientUnits="userSpaceOnUse"><stop offset="0" stop-color="#0078d4"/><stop offset=".82" stop-color="#5ea0ef"/></linearGradient><linearGradient id="Degradado_sin_nombre_2" x1="35.05" x2="35.05" y1="425.46" y2="418.22" gradientTransform="translate(0 -276.6)" gradientUnits="userSpaceOnUse"><stop offset=".15" stop-color="#ccc"/><stop offset="1" stop-color="#707070"/></linearGradient><linearGradient id="Degradado_sin_nombre_3" x1="80.43" x2="80.43" y1="418.22" y2="399.46" xlink:href="#Degradado_sin_nombre"/><linearGradient id="Degradado_sin_nombre_4" x1="80.43" x2="80.43" y1="425.46" y2="418.22" xlink:href="#Degradado_sin_nombre_2"/><linearGradient id="Degradado_sin_nombre_5" x1="191.87" x2="191.87" y1="421.46" y2="411.12" xlink:href="#Degradado_sin_nombre"/><linearGradient id="Degradado_sin_nombre_6" x1="191.94" x2="191.94" y1="425.46" y2="421.46" xlink:href="#Degradado_sin_nombre_2"/><linearGradient id="Degradado_sin_nombre_7" x1="141.17" x2="141.17" y1="418.22" y2="399.46" xlink:href="#Degradado_sin_nombre"/><linearGradient id="Degradado_sin_nombre_8" x1="141.17" x2="141.17" y1="425.46" y2="418.22" xlink:href="#Degradado_sin_nombre_2"/><linearGradient id="Degradado_sin_nombre_9" x1="23.52" x2="25.89" y1="477.64" y2="480.01" gradientTransform="translate(2.88 -278.01)" gradientUnits="userSpaceOnUse"><stop offset="0" stop-color="#86d633"/><stop offset=".24" stop-color="#83d232"/><stop offset=".5" stop-color="#7cc52f"/><stop offset=".76" stop-color="#6fb02a"/><stop offset="1" stop-color="#5e9624"/></linearGradient><linearGradient id="Degradado_sin_nombre_10" x1="18.18" x2="20.53" y1="477.64" y2="480.01" xlink:href="#Degradado_sin_nombre_9"/><linearGradient id="Degradado_sin_nombre_11" x1="12.83" x2="15.19" y1="477.64" y2="480.01" xlink:href="#Degradado_sin_nombre_9"/></defs><title>OJ104903192</title><g id="Target"><rect width="221" height="285.86" class="cls-1"/><path d="M214.34,201.17h-1v-1h1Zm-3,0h-1v-1h1Zm-3,0h-1v-1h1Zm-3,0h-1v-1h1Zm-3,0h-1v-1h1Zm-3,0h-1v-1h1Zm-3,0h-1v-1h1Zm-3,0h-1v-1h1Zm-3,0h-1v-1h1Zm-3,0h-1v-1h1Zm-3,0h-1v-1h1Zm-3,0h-1v-1h1Zm-3,0h-1v-1h1Zm-3,0h-1v-1h1Zm-3,0h-1v-1h1Zm-3,0h-1v-1h1Zm-3,0h-1v-1h1Zm-3,0h-1v-1h1Zm-3,0h-1v-1h1Zm-3,0h-1v-1h1Zm-3,0h-1v-1h1Zm-3,0h-1v-1h1Zm-3,0h-1v-1h1Zm-3,0h-1v-1h1Zm-3,0h-1v-1h1Zm-3,0h-1v-1h1Zm-3,0h-1v-1h1Zm-3,0h-1v-1h1Zm-3,0h-1v-1h1Zm-3,0h-1v-1h1Zm-3,0h-1v-1h1Zm-3,0h-1v-1h1Zm-3,0h-1v-1h1Zm-3,0h-1v-1h1Zm-3,0h-1v-1h1Zm-3,0h-1v-1h1Zm-3,0h-1v-1h1Zm-3,0h-1v-1h1Zm-3,0h-1v-1h1Zm-3,0h-1v-1h1Zm-3,0h-1v-1h1Zm-3,0h-1v-1h1Zm-3,0h-1v-1h1Zm-3,0h-1v-1h1Zm-3,0h-1v-1h1Zm-3,0h-1v-1h1Zm-3,0h-1v-1h1Zm-3,0h-1v-1h1Zm-3,0h-1v-1h1Zm-3,0h-1v-1h1Zm-3,0h-1v-1h1Zm-3,0h-1v-1h1Zm-3,0h-1v-1h1Zm-3,0H54v-1h1Zm-3,0H51v-1h1Zm-3,0H48v-1h1Zm-3,0H45v-1h1Zm-3,0H42v-1h1Zm-3,0H39v-1h1Zm-3,0H36v-1h1Zm-30,0H6v-1H7Zm209.46-.08-.17-1a4.29,4.29,0,0,0,.87-.23l.36.93a5.86,5.86,0,0,1-1.44.3Zm-213-.19a5.91,5.91,0,0,1-1-.43l.49-.88a4,4,0,0,0,.82.36Zm215.5-1.29-.69-.71a4.82,4.82,0,0,0,.58-.69l.82.57A5.65,5.65,0,0,1,219.32,199.61ZM1.16,199a5.71,5.71,0,0,1-.59-.94l.9-.44a3.75,3.75,0,0,0,.48.76Zm219.73-2.28-1-.2a4.41,4.41,0,0,0,.09-.89l1-.06v.06a5.33,5.33,0,0,1-.09,1.13ZM0,196v-1H1v1Zm221-2.38h-1v-1h1ZM1,193H0v-1H1Zm220-2.35h-1v-1h1ZM1,190H0v-1H1Zm220-2.36h-1v-1h1Zm-220-.7H0v-1H1Zm220-2.35h-1v-1h1ZM1,183.94H0v-1H1Zm220-2.36h-1v-1h1ZM1,180.93H0v-1H1Zm220-2.35h-1v-1h1ZM1,177.93H0v-1H1Zm220-2.36h-1v-1h1ZM1,174.92H0v-1H1Zm220-2.35h-1v-1h1ZM1,171.92H0v-1H1Zm220-2.36h-1v-1h1ZM1,168.91H0v-1H1Zm220-2.35h-1v-1h1ZM1,165.9H0v-1H1Zm220-2.35h-1v-1h1ZM1,162.9H0v-1H1Zm220-2.35h-1v-1h1ZM1,159.89H0v-1H1Zm220-2.35h-1v-1h1ZM1,156.89H0v-1H1Zm220-2.36h-1v-1h1ZM1,153.88H0v-1H1Zm220-2.35h-1v-1h1ZM1,150.88H0v-1H1Zm220-2.36h-1v-1h1ZM1,147.87H0v-1H1Zm220-2.35h-1v-1h1ZM1,144.87H0v-1H1Zm220-2.36h-1v-1h1ZM1,141.86H0v-1H1Zm220-2.35h-1v-1h1ZM1,138.86H0v-1H1Zm220-2.36h-1v-1h1ZM1,135.85H0v-1H1Zm220-2.35h-1v-1h1ZM1,132.85H0v-1H1Zm220-2.36h-1v-1h1ZM1,129.84H0v-1H1Zm220-2.36h-1v-1h1ZM1,126.83H0v-1H1Zm220-2.35h-1v-1h1ZM1,123.83H0v-1H1Zm220-2.36h-1v-1h1ZM1,120.82H0v-1H1Zm220-2.35h-1v-1h1ZM1,117.82H0v-1H1Zm220-2.36h-1v-1h1ZM1,114.81H0v-1H1Zm220-2.35h-1v-1h1ZM1,111.81H0v-1H1Zm220-2.36h-1v-1h1ZM1,108.8H0v-1H1Zm220-2.35h-1v-1h1ZM1,105.8H0v-1H1Zm220-2.36h-1v-1h1ZM1,102.79H0v-1H1Zm220-2.35h-1v-1h1ZM1,99.78H0v-1H1Zm220-2.35h-1v-1h1ZM1,96.78H0v-1H1Zm220-2.36h-1v-1h1ZM1,93.77H0v-1H1Zm220-2.35h-1v-1h1ZM1,90.77H0v-1H1Zm220-2.36h-1v-1h1ZM1,87.76H0v-1H1Zm220-2.35h-1v-1h1ZM1,84.76H0v-1H1ZM221,82.4h-1v-1h1ZM1,81.75H0v-1H1ZM221,79.4h-1v-1h1ZM1,78.75H0v-1H1Zm220-2.36h-1v-1h1ZM1,75.74H0v-1H1Zm220-2.35h-1v-1h1ZM1,72.73H0v-1H1Zm220-2.35h-1v-1h1ZM1,69.73H0v-1H1Zm220-2.35h-1v-1h1ZM1,66.72H0v-1H1Zm220-2.35h-1v-1h1ZM1,63.72H0v-1H1Zm220-2.36h-1v-1h1ZM1,60.71H0v-1H1Zm220-2.35h-1v-1h1ZM1,57.71H0v-1H1Zm220-2.36h-1v-1h1ZM1,54.7H0v-1H1Zm220-2.35h-1v-.68a1.41,1.41,0,0,0,0-.29l1-.07v1ZM0,51.7H0a5.77,5.77,0,0,1,.1-1.1l1,.2a5.12,5.12,0,0,0-.08.87Zm219.52-2.05a5.41,5.41,0,0,0-.48-.76l.78-.62a5,5,0,0,1,.59.93ZM1.78,49.15,1,48.59a5.25,5.25,0,0,1,.71-.85l.7.72A4.57,4.57,0,0,0,1.78,49.15Zm215.89-1.42a4.09,4.09,0,0,0-.83-.36l.31-.95a5.91,5.91,0,0,1,1,.43ZM3.86,47.48l-.37-.93a4.92,4.92,0,0,1,1.06-.3l.17,1A5.2,5.2,0,0,0,3.86,47.48ZM215,47.17h-1v-1h1Zm-3,0h-1v-1h1Zm-3,0h-1v-1h1Zm-3,0h-1v-1h1Zm-3,0h-1v-1h1Zm-3,0h-1v-1h1Zm-3,0h-1v-1h1Zm-3,0h-1v-1h1Zm-3,0h-1v-1h1Zm-3,0h-1v-1h1Zm-3,0h-1v-1h1Zm-3,0h-1v-1h1Zm-3,0h-1v-1h1Zm-3,0h-1v-1h1Zm-3,0h-1v-1h1Zm-3,0h-1v-1h1Zm-3,0h-1v-1h1Zm-3,0h-1v-1h1Zm-3,0h-1v-1h1Zm-3,0h-1v-1h1Zm-3,0h-1v-1h1Zm-27,0h-1v-1h1Zm-3,0h-1v-1h1Zm-3,0h-1v-1h1Zm-3,0h-1v-1h1Zm-3,0h-1v-1h1Zm-3,0h-1v-1h1Zm-3,0h-1v-1h1Zm-3,0h-1v-1h1Zm-3,0h-1v-1h1Zm-3,0h-1v-1h1Zm-3,0H97v-1h1Zm-3,0H94v-1h1Zm-3,0H91v-1h1Zm-3,0H88v-1h1Zm-3,0H85v-1h1Zm-3,0H82v-1h1Zm-3,0H79v-1h1Zm-3,0H76v-1h1Zm-3,0H73v-1h1Zm-3,0H70v-1h1Zm-3,0H67v-1h1Zm-3,0H64v-1h1Zm-3,0H61v-1h1Zm-3,0H58v-1h1Zm-3,0H55v-1h1Zm-3,0H52v-1h1Zm-3,0H49v-1h1Zm-3,0H46v-1h1Zm-3,0H43v-1h1Zm-3,0H40v-1h1Zm-3,0H37v-1h1Zm-3,0H34v-1h1Zm-3,0H31v-1h1Zm-3,0H28v-1h1Zm-3,0H25v-1h1Zm-3,0H22v-1h1Zm-3,0H19v-1h1Zm-3,0H16v-1h1Zm-3,0H13v-1h1Zm-3,0H10v-1h1Zm-3,0H7v-1H8Z" class="cls-2" transform="translate(0 0)"/><rect width="95" height="95" x="10" y="90.86" class="cls-1" rx=".3"/><rect width="95" height="95" x="10" y="90.86" class="cls-3" rx=".3"/><rect width="147.66" height="35" x="72.34" y="210.86" class="cls-4"/><rect width="147.66" height="35" x="72.34" y="250.86" class="cls-4"/><rect width="28.14" height="18.76" x="21" y="122.86" class="cls-5" rx=".94"/><polygon points="39.76 129.5 39.76 134.96 35.07 137.71 35.07 132.24 39.76 129.5" class="cls-6"/><polygon points="39.76 129.5 35.07 132.25 30.38 129.5 35.07 126.76 39.76 129.5" class="cls-7"/><polygon points="35.07 132.25 35.07 137.71 30.38 134.96 30.38 129.5 35.07 132.25" class="cls-8"/><polygon points="30.38 134.96 35.07 132.24 35.07 137.71 30.38 134.96" class="cls-7"/><polygon points="39.76 134.96 35.07 132.24 35.07 137.71 39.76 134.96" class="cls-8"/><path d="M40.71,147.29c-2.78-.44-2.89-2.44-2.89-5.67H32.3c0,3.23-.09,5.23-2.87,5.67A1.56,1.56,0,0,0,28,148.86H42.11A1.58,1.58,0,0,0,40.71,147.29Z" class="cls-9" transform="translate(0 0)"/><rect width="28.14" height="18.76" x="66.36" y="122.86" class="cls-10" rx=".94"/><polygon points="85.12 129.5 85.12 134.96 80.43 137.71 80.43 132.24 85.12 129.5" class="cls-6"/><polygon points="85.12 129.5 80.43 132.25 75.74 129.5 80.43 126.76 85.12 129.5" class="cls-7"/><polygon points="80.43 132.25 80.43 137.71 75.74 134.96 75.74 129.5 80.43 132.25" class="cls-8"/><polygon points="75.74 134.96 80.43 132.24 80.43 137.71 75.74 134.96" class="cls-7"/><polygon points="85.12 134.96 80.43 132.24 80.43 137.71 85.12 134.96" class="cls-8"/><path d="M86.07,147.29c-2.78-.44-2.89-2.44-2.89-5.67H77.66c0,3.23-.09,5.23-2.88,5.67a1.56,1.56,0,0,0-1.39,1.57H87.46A1.56,1.56,0,0,0,86.07,147.29Z" class="cls-11" transform="translate(0 0)"/><rect width="95" height="95" x="115" y="90.86" class="cls-1"/><rect width="95" height="95" x="115" y="90.86" class="cls-3"/><rect width="15.46" height="10.32" x="173.6" y="122.86" class="cls-12" rx=".52"/><polygon points="183.91 126.51 183.91 129.52 181.34 131.02 181.34 128.03 183.91 126.51" class="cls-6"/><polygon points="183.91 126.51 181.34 128.03 178.75 126.51 181.34 125 183.91 126.51" class="cls-7"/><polygon points="181.34 128.03 181.34 131.02 178.75 129.52 178.75 126.51 181.34 128.03" class="cls-8"/><rect width="15.46" height="10.32" x="179.67" y="128.77" class="cls-13" rx=".52"/><polygon points="189.98 132.44 189.98 135.44 187.41 136.96 187.41 133.94 189.98 132.44" class="cls-6"/><polygon points="189.98 132.44 187.41 133.94 184.82 132.44 187.41 130.93 189.98 132.44" class="cls-7"/><polygon points="187.41 133.94 187.41 136.96 184.82 135.44 184.82 132.44 187.41 133.94" class="cls-8"/><rect width="15.46" height="10.32" x="184.14" y="134.52" class="cls-14" rx=".52"/><polygon points="194.44 138.19 194.44 141.19 191.88 142.71 191.88 139.69 194.44 138.19" class="cls-6"/><polygon points="194.44 138.19 191.88 139.71 189.29 138.19 191.88 136.68 194.44 138.19" class="cls-7"/><polygon points="191.88 139.71 191.88 142.71 189.29 141.19 189.29 138.19 191.88 139.71" class="cls-8"/><polygon points="189.29 141.19 191.88 139.69 191.88 142.71 189.29 141.19" class="cls-7"/><polygon points="194.44 141.19 191.88 139.69 191.88 142.71 194.44 141.19" class="cls-8"/><path d="M195,148c-1.52-.24-1.52-1.34-1.52-3.06h-3.06c0,1.78,0,2.88-1.53,3.06a.91.91,0,0,0-.77.88h7.65A.91.91,0,0,0,195,148Z" class="cls-15" transform="translate(0 0)"/><rect width="28.14" height="18.76" x="127.1" y="122.86" class="cls-16" rx=".94"/><polygon points="145.86 129.5 145.86 134.96 141.17 137.71 141.17 132.24 145.86 129.5" class="cls-6"/><polygon points="145.86 129.5 141.17 132.25 136.48 129.5 141.17 126.76 145.86 129.5" class="cls-7"/><polygon points="141.17 132.25 141.17 137.71 136.48 134.96 136.48 129.5 141.17 132.25" class="cls-8"/><polygon points="136.48 134.96 141.17 132.24 141.17 137.71 136.48 134.96" class="cls-7"/><polygon points="145.86 134.96 141.17 132.24 141.17 137.71 145.86 134.96" class="cls-8"/><path d="M146.81,147.29c-2.78-.44-2.89-2.44-2.89-5.67H138.4c0,3.23-.09,5.23-2.87,5.67a1.58,1.58,0,0,0-1.4,1.57h14.08A1.58,1.58,0,0,0,146.81,147.29Z" class="cls-17" transform="translate(0 0)"/><line x1="90.37" x2="90.37" y1="90.71" y2="63.64" class="cls-18"/><line x1="82.84" x2="82.84" y1="85.18" y2="73.48" class="cls-18"/><polygon points="85.83 74.36 82.84 69.18 79.85 74.36 85.83 74.36" class="cls-2"/><line x1="97.89" x2="97.89" y1="80.87" y2="80.12" class="cls-18"/><line x1="97.89" x2="97.89" y1="77.69" y2="71.14" class="cls-19"/><line x1="97.89" x2="97.89" y1="69.93" y2="69.18" class="cls-18"/><polygon points="100.88 80 97.89 85.18 94.9 80 100.88 80" class="cls-2"/><line x1="129.52" x2="129.52" y1="90.71" y2="63.64" class="cls-18"/><line x1="122" x2="122" y1="85.18" y2="73.48" class="cls-18"/><polygon points="124.99 74.36 122 69.18 119.01 74.36 124.99 74.36" class="cls-2"/><line x1="137.05" x2="137.05" y1="80.87" y2="80.12" class="cls-18"/><line x1="137.05" x2="137.05" y1="77.69" y2="71.14" class="cls-19"/><line x1="137.05" x2="137.05" y1="69.93" y2="69.18" class="cls-18"/><polygon points="140.04 80 137.05 85.18 134.06 80 140.04 80" class="cls-2"/><line x1="109.7" x2="109.7" y1="38.29" y2="18.79" class="cls-18"/><line x1="81.31" x2="92.43" y1="220.86" y2="220.86" class="cls-18"/><polygon points="82.18 223.85 77 220.85 82.18 217.86 82.18 223.85" class="cls-2"/><line x1="87.69" x2="86.94" y1="260.86" y2="260.86" class="cls-18"/><line x1="84.75" x2="78.84" y1="260.86" y2="260.86" class="cls-20"/><line x1="77.75" x2="77" y1="260.86" y2="260.86" class="cls-18"/><polygon points="86.82 257.86 92 260.86 86.82 263.85 86.82 257.86" class="cls-2"/><path d="M105.83,41,65.74,29.61a4.21,4.21,0,0,1-2.89-3.82v-7" class="cls-18" transform="translate(0 0)"/><path d="M114,41l43.3-11.45a4.1,4.1,0,0,0,2.9-3.76v-7" class="cls-18" transform="translate(0 0)"/><circle cx="27.4" cy="200.63" r="1.67" class="cls-21"/><circle cx="22.06" cy="200.64" r="1.67" class="cls-22"/><circle cx="16.72" cy="200.64" r="1.67" class="cls-23"/><path d="M17.93,207.34l-1,1a.43.43,0,0,1-.61,0h0l-7.09-7.08a.88.88,0,0,1,0-1.22h0l1-1h0l7.71,7.69a.43.43,0,0,1,0,.61h0Z" class="cls-6" transform="translate(0 0)"/><path d="M16.83,193l1,1a.43.43,0,0,1,0,.61h0l-7.57,7.6h0l-1-1a.88.88,0,0,1,0-1.22h0l7-7A.43.43,0,0,1,16.83,193Z" class="cls-24" transform="translate(0 0)"/><path d="M33.78,199l1,1a.86.86,0,0,1,0,1.22h0l-7.1,7.08a.43.43,0,0,1-.61,0h0l-1-1a.44.44,0,0,1,0-.62h0Z" class="cls-6" transform="translate(0 0)"/><path d="M34.74,201.2l-1,1h0l-7.57-7.6a.43.43,0,0,1,0-.61h0l1-1a.43.43,0,0,1,.61,0h0l7,7a.88.88,0,0,1,0,1.22h0Z" class="cls-24" transform="translate(0 0)"/><rect width="35" height="20.86" x="45.35" class="cls-1"/><rect width="35" height="20.86" x="45.35" class="cls-3"/><rect width="35" height="20.86" x="92.7" class="cls-1"/><rect width="35" height="20.86" x="92.7" class="cls-3"/><rect width="54.51" height="20.86" x="137.7" class="cls-1"/><rect width="54.51" height="20.86" x="137.7" class="cls-3"/><rect width="23.5" height="20.86" x="13.69" class="cls-1"/><rect width="23.5" height="20.86" x="13.69" class="cls-25"/><line x1="24.92" x2="24.92" y1="90.71" y2="21.02" class="cls-26"/><line x1="18.04" x2="18.04" y1="80.44" y2="68.74" class="cls-26"/><polygon points="21.03 79.56 18.04 84.75 15.05 79.56 21.03 79.56" class="cls-27"/><line x1="31.8" x2="31.8" y1="84.74" y2="83.99" class="cls-26"/><line x1="31.8" x2="31.8" y1="81.57" y2="75.01" class="cls-28"/><line x1="31.8" x2="31.8" y1="73.8" y2="73.05" class="cls-26"/><polygon points="34.79 73.93 31.8 68.75 28.8 73.93 34.79 73.93" class="cls-27"/><rect width="70" height="10" x="74.82" y="53.67" class="cls-1"/><rect width="70" height="10" x="74.82" y="53.67" class="cls-29"/><g id="ad94e297-0e86-4eaf-aac0-d146ee9aea65"><path d="M105.75,54l-4.68-4.84a2.28,2.28,0,0,1-.78.13A2.43,2.43,0,1,1,102.53,46h4.62v1.62H102.6a3.68,3.68,0,0,1-.26.57l4.33,4.46L109,49.07V37.89h-3.15l4-4,3.94,4h-3.15v8.74l5.93-9.05-6-6a1,1,0,0,0-1.41,0l0,0h0L94.64,46.06a1,1,0,0,0,0,1.41l0,.05h0L109.11,62l-5.17-5.17Z" class="cls-30" transform="translate(0 0)"/><path d="M109,54.22V49.05l-2.34,3.59,1.72,1.84A2,2,0,0,1,109,54.22Z" class="cls-31" transform="translate(0 0)"/><path d="M125,46.06l-8.47-8.48-5.93,9.05v7.61a2.1,2.1,0,0,1,.53.29l6.22-6.28a3.15,3.15,0,0,1-.31-.64H112.4V46h4.74a2.41,2.41,0,1,1,2.24,3.32,2.53,2.53,0,0,1-.67-.1l-6.62,6.67a2.18,2.18,0,0,1,.11.62,2.43,2.43,0,0,1-4.86.19,2.5,2.5,0,0,1,.14-.9l-1.73-1.72-1.84,2.76L109.08,62a1,1,0,0,0,1.41,0l0,0L125,47.52a1,1,0,0,0,0-1.41Z" class="cls-31" transform="translate(0 0)"/><path d="M117.14,46H112.4v1.62h4.67a3,3,0,0,1-.12-.73A2.26,2.26,0,0,1,117.14,46Z" class="cls-32" transform="translate(0 0)"/><path d="M102.6,47.61h4.55V46h-4.62a2.09,2.09,0,0,1,.19.89A2.22,2.22,0,0,1,102.6,47.61Z" class="cls-32" transform="translate(0 0)"/><path d="M112.09,55.88l6.62-6.67a2.43,2.43,0,0,1-1.33-1l-6.22,6.28A2.24,2.24,0,0,1,112.09,55.88Z" class="cls-32" transform="translate(0 0)"/><path d="M108.44,54.48l-1.72-1.84-4.38-4.46a2.51,2.51,0,0,1-1.27,1L105.75,54l1.73,1.72A2.37,2.37,0,0,1,108.44,54.48Z" class="cls-32" transform="translate(0 0)"/><path d="M113.76,37.89l-3.92-4-4,4H109V54.22a1.73,1.73,0,0,0-.57.26,2.41,2.41,0,1,0,3.65,2.71,2.31,2.31,0,0,0,.11-.69,2.18,2.18,0,0,0-.11-.62,2.26,2.26,0,0,0-.93-1.35,2.1,2.1,0,0,0-.53-.29V37.89Zm-3.92,20a1.35,1.35,0,1,1,1.34-1.36v0h0a1.34,1.34,0,0,1-1.34,1.29Z" class="cls-1" transform="translate(0 0)"/><path d="M102.34,48.18a3.68,3.68,0,0,0,.26-.57,2.28,2.28,0,0,0,.12-.73,2.09,2.09,0,0,0-.19-.89,2.41,2.41,0,1,0-2.24,3.32,2.28,2.28,0,0,0,.78-.13A2.51,2.51,0,0,0,102.34,48.18Zm-2,0a1.35,1.35,0,1,1,1.35-1.35h0a1.36,1.36,0,0,1-1.3,1.4h0Z" class="cls-1" transform="translate(0 0)"/><path d="M118.71,49.21a2.53,2.53,0,0,0,.67.1A2.43,2.43,0,1,0,117.14,46a2.26,2.26,0,0,0-.19.89,3,3,0,0,0,.12.73,3.15,3.15,0,0,0,.31.64A2.46,2.46,0,0,0,118.71,49.21Zm.67-3.65a1.34,1.34,0,0,1,0,2.67,1.34,1.34,0,1,1-.3-2.67A1.5,1.5,0,0,1,119.38,45.56Z" class="cls-1" transform="translate(0 0)"/><path d="M109.84,55.15a1.35,1.35,0,1,0,1.34,1.36h0A1.36,1.36,0,0,0,109.84,55.15Z" class="cls-33" transform="translate(0 0)"/><circle cx="100.29" cy="46.88" r="1.34" class="cls-33"/><path d="M119.38,48.23A1.35,1.35,0,1,0,118,46.88h0a1.34,1.34,0,0,0,1.33,1.35Z" class="cls-33" transform="translate(0 0)"/></g></g><g id="Text"><text class="cls-34" transform="translate(119.27 165.9) scale(0.99 1)">Виртуальная<tspan x="7.95" y="9.6">машина</tspan></text><text class="cls-34" transform="translate(58.36 165.9) scale(0.99 1)">Виртуальная<tspan x="7.95" y="9.6">машина</tspan></text><text class="cls-34" transform="translate(11.55 165.9) scale(0.99 1)">Виртуальная<tspan x="7.95" y="9.6">машина</tspan></text><text class="cls-35" transform="translate(176.54 165.9) scale(0.99 1)">VMSS</text><text class="cls-36" transform="translate(140.16 14.16)">Префикс</text><text class="cls-36" transform="translate(101.89 14.16)">PIP</text><text class="cls-36" transform="translate(54.52 14.16)">PIP</text><text class="cls-36" transform="translate(17.45 14.16)">PIP</text><text class="cls-37" transform="translate(3 14.16)">IL</text><text class="cls-36" transform="translate(130.98 49.99)">N<tspan x="8.98" y="0" class="cls-38">A</tspan><tspan x="15.86" y="0">T</tspan></text><text class="cls-39" transform="translate(31.57 105.97) scale(0.99 1)">Подсеть A</text><text class="cls-40" transform="translate(136.02 105.75)">Подсеть B</text><text class="cls-41" transform="translate(9.02 222.59) scale(0.99 1)">Виртуальная<tspan x="0" y="13.2">Сеть</tspan></text><text class="cls-42" transform="translate(101.96 223.59)">Напра<tspan x="28.61" y="0" class="cls-43">в</tspan><tspan x="33.91" y="0" class="cls-44">ление п</tspan><tspan x="68.97" y="0" class="cls-45">о</tspan><tspan x="74.65" y="0" class="cls-46">т</tspan><tspan x="78.67" y="0" class="cls-47">о</tspan><tspan x="84.43" y="0" class="cls-48">к</tspan><tspan x="89.54" y="0" class="cls-47">а </tspan><tspan x="96.62" y="0" class="cls-49">д</tspan><tspan x="102.28" y="0" class="cls-50">л</tspan><tspan x="107.62" y="0" class="cls-44">я </tspan><tspan x="0" y="13.2">обра</tspan><tspan x="22.31" y="13.2" class="cls-51">щ</tspan><tspan x="30.23" y="13.2" class="cls-47">ен</tspan><tspan x="41.2" y="13.2" class="cls-50">и</tspan><tspan x="47.06" y="13.2" class="cls-44">я (&quot;запрос&quot;)</tspan></text><text class="cls-42" transform="translate(101.87 264.45)">Напра<tspan x="28.61" y="0" class="cls-43">в</tspan><tspan x="33.91" y="0" class="cls-44">ление п</tspan><tspan x="68.97" y="0" class="cls-45">о</tspan><tspan x="74.65" y="0" class="cls-46">т</tspan><tspan x="78.67" y="0" class="cls-47">о</tspan><tspan x="84.43" y="0" class="cls-48">к</tspan><tspan x="89.54" y="0" class="cls-47">а </tspan><tspan x="96.62" y="0" class="cls-49">д</tspan><tspan x="102.28" y="0" class="cls-50">л</tspan><tspan x="107.62" y="0" class="cls-44">я </tspan><tspan x="0" y="13.2">возвр</tspan><tspan x="26.66" y="13.2" class="cls-52">а</tspan><tspan x="31.61" y="13.2" class="cls-53">т</tspan><tspan x="35.71" y="13.2" class="cls-47">а (&quot;</tspan><tspan x="49.07" y="13.2" class="cls-45">о</tspan><tspan x="54.75" y="13.2" class="cls-52">т</tspan><tspan x="58.92" y="13.2" class="cls-44">в</tspan><tspan x="64.14" y="13.2" class="cls-51">е</tspan><tspan x="69.33" y="13.2" class="cls-47">т&quot;)</tspan></text></g></svg>