<svg xmlns="http://www.w3.org/2000/svg" xmlns:xlink="http://www.w3.org/1999/xlink" viewBox="0 0 332.33 285.86"><defs><style>.cls-1{fill:#fff}.cls-2{fill:#ccc;fill-opacity:.3}.cls-23,.cls-24,.cls-26,.cls-3,.cls-35,.cls-37,.cls-4,.cls-9{fill:none;stroke-miterlimit:10}.cls-23,.cls-3,.cls-4{stroke:#3c3c41}.cls-4{stroke-dasharray:1.31 2.19}.cls-5,.cls-6,.cls-7,.cls-8{fill:#3c3c41}.cls-6{opacity:.05}.cls-34,.cls-38,.cls-39,.cls-6,.cls-7,.cls-8,.cls-9{isolation:isolate}.cls-7{opacity:.2}.cls-8{opacity:.02}.cls-24,.cls-26,.cls-9{stroke:#365615}.cls-9{stroke-width:.5px;opacity:.5}.cls-10{fill:url(#Degradado_sin_nombre)}.cls-11{fill:#50e6ff}.cls-12{fill:#c3f1ff}.cls-13{fill:#9cebff}.cls-14{fill:url(#Degradado_sin_nombre_2)}.cls-15{fill:url(#Degradado_sin_nombre_3)}.cls-16{fill:url(#Degradado_sin_nombre_4)}.cls-17{fill:#005ba1}.cls-18{fill:#0078d4}.cls-19{fill:url(#Degradado_sin_nombre_5)}.cls-20{fill:url(#Degradado_sin_nombre_6)}.cls-21{fill:url(#Degradado_sin_nombre_7)}.cls-22{fill:url(#Degradado_sin_nombre_8)}.cls-23,.cls-26,.cls-37{stroke-dasharray:1.46 2.43}.cls-25{fill:#365615}.cls-27{fill:url(#Degradado_sin_nombre_9)}.cls-28{fill:url(#Degradado_sin_nombre_10)}.cls-29{fill:url(#Degradado_sin_nombre_11)}.cls-30{fill:#1490df}.cls-31{fill:url(#Degradado_sin_nombre_12)}.cls-32{fill:#b4ec36}.cls-33{fill:#5ea0ef}.cls-34{fill:#9bf00b}.cls-34,.cls-38,.cls-39{opacity:.4}.cls-35,.cls-37{stroke:#003067}.cls-36{fill:#003067}.cls-38{fill:#83b9f9}.cls-39,.cls-40{fill:#6ebcdb}.cls-41{fill:#5db4d7}.cls-42{fill:#e6e6e6}.cls-43{fill:#86d633}.cls-44,.cls-45,.cls-46{font-size:8px}.cls-44,.cls-45,.cls-46,.cls-47,.cls-50,.cls-51,.cls-52,.cls-53,.cls-63{fill:#1e1e1e}.cls-44,.cls-45,.cls-46,.cls-47,.cls-48,.cls-50,.cls-51,.cls-52{font-family:SegoeUI,Segoe UI}.cls-44{letter-spacing:-.02em}.cls-45,.cls-46{letter-spacing:0}.cls-47,.cls-48{font-size:12px}.cls-48{fill:#767676}.cls-49{letter-spacing:-.07em}.cls-50,.cls-51{font-size:12.44px;letter-spacing:0}.cls-51{font-size:11.97px}.cls-52{font-size:12.19px}.cls-53,.cls-63{font-size:12.5px;font-family:MyriadPro-Regular,Myriad Pro}.cls-53,.cls-54,.cls-55,.cls-64{letter-spacing:.01em}.cls-56{letter-spacing:0}.cls-57{letter-spacing:-.01em}.cls-58{letter-spacing:.01em}.cls-59,.cls-60{letter-spacing:.02em}.cls-61{letter-spacing:.01em}.cls-62{letter-spacing:0}.cls-65{letter-spacing:.02em}.cls-66{letter-spacing:.01em}.cls-67{letter-spacing:0}.cls-68{letter-spacing:-.01em}.cls-69{letter-spacing:0}</style><linearGradient id="Degradado_sin_nombre" x1="132.84" x2="132.84" y1="445.76" y2="427" gradientTransform="translate(0 -292.14)" gradientUnits="userSpaceOnUse"><stop offset="0" stop-color="#0078d4"/><stop offset=".82" stop-color="#5ea0ef"/></linearGradient><linearGradient id="Degradado_sin_nombre_2" x1="132.84" x2="132.84" y1="453" y2="445.76" gradientTransform="translate(0 -292.14)" gradientUnits="userSpaceOnUse"><stop offset=".15" stop-color="#ccc"/><stop offset="1" stop-color="#707070"/></linearGradient><linearGradient id="Degradado_sin_nombre_3" x1="180.92" x2="180.92" y1="445.76" y2="427" xlink:href="#Degradado_sin_nombre"/><linearGradient id="Degradado_sin_nombre_4" x1="180.94" x2="180.94" y1="453" y2="445.76" xlink:href="#Degradado_sin_nombre_2"/><linearGradient id="Degradado_sin_nombre_5" x1="300.19" x2="300.19" y1="433.76" y2="423.44" xlink:href="#Degradado_sin_nombre"/><linearGradient id="Degradado_sin_nombre_6" x1="300.24" x2="300.24" y1="437.77" y2="433.77" xlink:href="#Degradado_sin_nombre_2"/><linearGradient id="Degradado_sin_nombre_7" x1="252.5" x2="252.5" y1="433.76" y2="415" xlink:href="#Degradado_sin_nombre"/><linearGradient id="Degradado_sin_nombre_8" x1="252.5" x2="252.5" y1="441" y2="433.76" xlink:href="#Degradado_sin_nombre_2"/><linearGradient id="Degradado_sin_nombre_9" x1="75.68" x2="78.04" y1="492.87" y2="495.24" gradientTransform="translate(2.87 -293.36)" gradientUnits="userSpaceOnUse"><stop offset="0" stop-color="#86d633"/><stop offset=".24" stop-color="#83d232"/><stop offset=".5" stop-color="#7cc52f"/><stop offset=".76" stop-color="#6fb02a"/><stop offset="1" stop-color="#5e9624"/></linearGradient><linearGradient id="Degradado_sin_nombre_10" x1="70.33" x2="72.69" y1="492.87" y2="495.24" xlink:href="#Degradado_sin_nombre_9"/><linearGradient id="Degradado_sin_nombre_11" x1="64.99" x2="67.35" y1="492.87" y2="495.24" xlink:href="#Degradado_sin_nombre_9"/><linearGradient id="Degradado_sin_nombre_12" x1="84.67" x2="84.67" y1="357.92" y2="321.98" gradientTransform="translate(0 -292.14)" gradientUnits="userSpaceOnUse"><stop offset="0" stop-color="#5e9624"/><stop offset=".02" stop-color="#5f9724"/><stop offset="1" stop-color="#76bc2d"/></linearGradient></defs><title>OJ104903191</title><g id="Target"><rect width="332.33" height="285.86" class="cls-1"/><rect width="175.17" height="35" x="156.33" y="210.86" class="cls-2"/><rect width="175.17" height="35" x="156.33" y="250.86" class="cls-2"/><line x1="172.02" x2="171.27" y1="260.86" y2="260.86" class="cls-3"/><line x1="169.08" x2="163.17" y1="260.86" y2="260.86" class="cls-4"/><line x1="162.08" x2="161.33" y1="260.86" y2="260.86" class="cls-3"/><polygon points="171.15 257.86 176.33 260.86 171.15 263.85 171.15 257.86" class="cls-5"/><path d="M331.83,46.5v149a5,5,0,0,1-5,5h-270a5,5,0,0,1-5-5V46.5" class="cls-1"/><path d="M331.83,46.5v149a5,5,0,0,1-5,5h-270a5,5,0,0,1-5-5V46.5" class="cls-6"/><path d="M325.67,201h-1v-1h1Zm-3,0h-1v-1h1Zm-3,0h-1v-1h1Zm-3,0h-1v-1h1Zm-3,0h-1v-1h1Zm-3,0h-1v-1h1Zm-3,0h-1v-1h1Zm-3,0h-1v-1h1Zm-3,0h-1v-1h1Zm-3,0h-1v-1h1Zm-3,0h-1v-1h1Zm-3,0h-1v-1h1Zm-3,0h-1v-1h1Zm-3,0h-1v-1h1Zm-3,0h-1v-1h1Zm-3,0h-1v-1h1Zm-3,0h-1v-1h1Zm-3,0h-1v-1h1Zm-3,0h-1v-1h1Zm-3,0h-1v-1h1Zm-3,0h-1v-1h1Zm-3,0h-1v-1h1Zm-3,0h-1v-1h1Zm-3,0h-1v-1h1Zm-3,0h-1v-1h1Zm-3,0h-1v-1h1Zm-3,0h-1v-1h1Zm-3,0h-1v-1h1Zm-3,0h-1v-1h1Zm-3,0h-1v-1h1Zm-3,0h-1v-1h1Zm-3,0h-1v-1h1Zm-3,0h-1v-1h1Zm-3,0h-1v-1h1Zm-3,0h-1v-1h1Zm-3,0h-1v-1h1Zm-3,0h-1v-1h1Zm-3,0h-1v-1h1Zm-3,0h-1v-1h1Zm-3,0h-1v-1h1Zm-3,0h-1v-1h1Zm-3,0h-1v-1h1Zm-3,0h-1v-1h1Zm-3,0h-1v-1h1Zm-3,0h-1v-1h1Zm-3,0h-1v-1h1Zm-3,0h-1v-1h1Zm-3,0h-1v-1h1Zm-3,0h-1v-1h1Zm-3,0h-1v-1h1Zm-3,0h-1v-1h1Zm-3,0h-1v-1h1Zm-3,0h-1v-1h1Zm-3,0h-1v-1h1Zm-3,0h-1v-1h1Zm-3,0h-1v-1h1Zm-3,0h-1v-1h1Zm-3,0h-1v-1h1Zm-3,0h-1v-1h1Zm-3,0h-1v-1h1Zm-3,0h-1v-1h1Zm-3,0h-1v-1h1Zm-3,0h-1v-1h1Zm-3,0h-1v-1h1Zm-3,0h-1v-1h1Zm-3,0h-1v-1h1Zm-3,0h-1v-1h1Zm-3,0h-1v-1h1Zm-3,0h-1v-1h1Zm-3,0h-1v-1h1Zm-3,0h-1v-1h1Zm-3,0h-1v-1h1Zm-3,0h-1v-1h1Zm-3,0h-1v-1h1Zm-3,0h-1v-1h1Zm-3,0h-1v-1h1Zm-3,0h-1v-1h1Zm-3,0h-1v-1h1Zm-3,0h-1v-1h1Zm-33,0h-1v-1h1Zm269.5-.08-.17-1a4.31,4.31,0,0,0,.87-.24l.36.93a5.74,5.74,0,0,1-1.48.31Zm-272.64-.2a4.5,4.5,0,0,1-1-.45l.5-.86a4,4,0,0,0,.82.37Zm275.54-1.27-.69-.72A4.82,4.82,0,0,0,331,198l.82.57a6.26,6.26,0,0,1-1.13.84Zm-278.19-.61a6.1,6.1,0,0,1-.58-.94l.9-.44a4.66,4.66,0,0,0,.47.77Zm279.76-2.24-1-.21a4.41,4.41,0,0,0,.09-.89l1-.06v.06a5.77,5.77,0,0,1-.51,1.1Zm-280.88-.82v-1h1v1Zm281-2.34h-1v-1h1Zm-280-.69h-1v-1h1Zm280-2.32h-1v-1h1Zm-280-.68h-1v-1h1Zm280-2.32h-1v-1h1Zm-280-.69h-1v-1h1Zm280-2.32h-1v-1h1Zm-280-.68h-1v-1h1Zm280-2.32h-1v-1h1Zm-280-.69h-1v-1h1Zm280-2.31h-1v-1h1Zm-280-.69h-1v-1h1Zm280-2.32h-1v-1h1Zm-280-.69h-1v-1h1Zm280-2.31h-1v-1h1Zm-280-.69h-1v-1h1Zm280-2.32h-1v-1h1Zm-280-.69h-1v-1h1Zm280-2.31h-1v-1h1Zm-280-.69h-1v-1h1Zm280-2.32h-1v-1h1Zm-280-.69h-1v-1h1Zm280-2.31h-1v-1h1Zm-280-.69h-1v-1h1Zm280-2.32h-1v-1h1Zm-280-.69h-1v-1h1Zm280-2.31h-1v-1h1Zm-280-.69h-1v-1h1Zm280-2.32h-1v-1h1Zm-280-.69h-1v-1h1Zm280-2.31h-1v-1h1Zm-280-.69h-1v-1h1Zm280-2.32h-1v-1h1Zm-280-.68h-1v-1h1Zm280-2.32h-1v-1h1Zm-280-.69h-1v-1h1Zm280-2.32h-1v-1h1Zm-280-.68h-1v-1h1Zm280-2.32h-1v-1h1Zm-280-.69h-1v-1h1Zm280-2.32h-1v-1h1Zm-280-.68h-1v-1h1Zm280-2.32h-1v-1h1Zm-280-.69h-1v-1h1Zm280-2.32h-1v-1h1Zm-280-.68h-1v-1h1Zm280-2.32h-1v-1h1Zm-280-.69h-1v-1h1Zm280-2.31h-1v-1h1Zm-280-.69h-1v-1h1Zm280-2.32h-1v-1h1Zm-280-.69h-1v-1h1Zm280-2.31h-1v-1h1Zm-280-.69h-1v-1h1Zm280-2.32h-1v-1h1Zm-280-.69h-1v-1h1Zm280-2.31h-1v-1h1Zm-280-.69h-1v-1h1Zm280-2.32h-1v-1h1Zm-280-.69h-1v-1h1Zm280-2.31h-1v-1h1Zm-280-.69h-1v-1h1Zm280-2.32h-1v-1h1Zm-280-.69h-1v-1h1Zm280-2.31h-1v-1h1Zm-280-.69h-1v-1h1Zm280-2.32h-1v-1h1Zm-280-.69h-1v-1h1Zm280-2.31h-1v-1h1Zm-280-.69h-1v-1h1Zm280-2.32h-1v-1h1Zm-280-.68h-1v-1h1Zm280-2.32h-1v-1h1Zm-280-.69h-1v-1h1Zm280-2.32h-1v-1h1Zm-280-.68h-1v-1h1Zm280-2.32h-1v-1h1Zm-280-.69h-1v-1h1Zm280-2.32h-1v-1h1Zm-280-.68h-1v-1h1Zm280-2.32h-1v-1h1Zm-280-.69h-1v-1h1Zm280-2.31h-1v-1h1Zm-280-.69h-1v-1h1Zm280-2.32h-1v-1h1Zm-280-.69h-1v-1h1Zm280-2.31h-1v-1h1Zm-280-.69h-1v-1h1Zm280-2.32h-1v-1h1Zm-280-.69h-1v-1h1Zm280-2.31h-1v-1h1Zm-280-.69h-1v-1h1Zm280-2.32h-1v-1h1Zm-280-.69h-1v-1h1Zm280-2.31h-1v-1l1-.05v1Zm-281-.69h0a5.36,5.36,0,0,1,.1-1.06l1,.19a5.12,5.12,0,0,0-.08.87Zm279.53-2a4,4,0,0,0-.48-.76l.79-.61a5,5,0,0,1,.59.93ZM53.1,49l-.82-.56a6.24,6.24,0,0,1,.7-.84l.7.71A4.82,4.82,0,0,0,53.1,49ZM329,47.58a4,4,0,0,0-.82-.36l.3-.95a5.24,5.24,0,0,1,1,.44ZM55.18,47.31l-.36-.93a6.41,6.41,0,0,1,1.06-.3l.17,1A4.29,4.29,0,0,0,55.18,47.31ZM326.38,47h-1V46h1Zm-3,0h-1V46h1Zm-3,0h-1V46h1Zm-3,0h-1V46h1Zm-3,0h-1V46h1Zm-3,0h-1V46h1Zm-3,0h-1V46h1Zm-3,0h-1V46h1Zm-3,0h-1V46h1Zm-3,0h-1V46h1Zm-3,0h-1V46h1Zm-3,0h-1V46h1Zm-3,0h-1V46h1Zm-3,0h-1V46h1Zm-3,0h-1V46h1Zm-3,0h-1V46h1Zm-3,0h-1V46h1Zm-3,0h-1V46h1Zm-3,0h-1V46h1Zm-3,0h-1V46h1Zm-27,0h-1V46h1Zm-3,0h-1V46h1Zm-3,0h-1V46h1Zm-3,0h-1V46h1Zm-3,0h-1V46h1Zm-3,0h-1V46h1Zm-3,0h-1V46h1Zm-3,0h-1V46h1Zm-3,0h-1V46h1Zm-3,0h-1V46h1Zm-3,0h-1V46h1Zm-3,0h-1V46h1Zm-3,0h-1V46h1Zm-3,0h-1V46h1Zm-3,0h-1V46h1Zm-3,0h-1V46h1Zm-3,0h-1V46h1Zm-3,0h-1V46h1Zm-3,0h-1V46h1Zm-3,0h-1V46h1Zm-3,0h-1V46h1Zm-3,0h-1V46h1Zm-3,0h-1V46h1Zm-3,0h-1V46h1Zm-3,0h-1V46h1Zm-3,0h-1V46h1Zm-3,0h-1V46h1Zm-3,0h-1V46h1Zm-3,0h-1V46h1Zm-3,0h-1V46h1Zm-3,0h-1V46h1Zm-3,0h-1V46h1Zm-3,0h-1V46h1Zm-3,0h-1V46h1Zm-3,0h-1V46h1Zm-3,0h-1V46h1Zm-3,0h-1V46h1Zm-3,0h-1V46h1Zm-3,0h-1V46h1Zm-3,0h-1V46h1Zm-3,0h-1V46h1Zm-3,0h-1V46h1Zm-3,0h-1V46h1Zm-3,0h-1V46h1Zm-3,0h-1V46h1Zm-3,0h-1V46h1Zm-3,0h-1V46h1Zm-3,0h-1V46h1Zm-3,0H97V46h1Zm-3,0H94V46h1Zm-3,0H91V46h1Zm-3,0H88V46h1Zm-3,0H85V46h1Zm-3,0H82V46h1Zm-3,0H79V46h1Zm-3,0H76V46h1Zm-3,0H73V46h1Zm-3,0H70V46h1Zm-3,0H67V46h1Zm-3,0H64V46h1Zm-3,0H61V46h1Zm-3,0H58V46h1Z" class="cls-5"/><rect width="155" height="95" x="61.33" y="90.86" class="cls-1"/><rect width="155" height="95" x="61.33" y="90.86" class="cls-7"/><rect width="145" height="70" x="66.33" y="110.86" class="cls-1"/><rect width="145" height="70" x="66.33" y="110.86" class="cls-8"/><rect width="145" height="70" x="66.33" y="110.86" class="cls-9"/><rect width="28.14" height="18.76" x="118.77" y="134.86" class="cls-10" rx=".94"/><polygon points="137.53 141.5 137.53 146.96 132.84 149.71 132.84 144.24 137.53 141.5" class="cls-11"/><polygon points="137.53 141.5 132.84 144.25 128.15 141.5 132.84 138.76 137.53 141.5" class="cls-12"/><polygon points="132.84 144.25 132.84 149.71 128.15 146.96 128.15 141.5 132.84 144.25" class="cls-13"/><polygon points="128.15 146.96 132.84 144.24 132.84 149.71 128.15 146.96" class="cls-12"/><polygon points="137.53 146.96 132.84 144.24 132.84 149.71 137.53 146.96" class="cls-13"/><path d="M138.48,159.29c-2.78-.44-2.89-2.44-2.89-5.67h-5.52c0,3.23-.09,5.23-2.88,5.67a1.56,1.56,0,0,0-1.39,1.57h14.07A1.56,1.56,0,0,0,138.48,159.29Z" class="cls-14"/><rect width="28.14" height="18.76" x="166.85" y="134.86" class="cls-15" rx=".94"/><polygon points="185.61 141.5 185.61 146.96 180.92 149.71 180.92 144.24 185.61 141.5" class="cls-11"/><polygon points="185.61 141.5 180.92 144.25 176.23 141.5 180.92 138.76 185.61 141.5" class="cls-12"/><polygon points="180.92 144.25 180.92 149.71 176.23 146.96 176.23 141.5 180.92 144.25" class="cls-13"/><polygon points="176.23 146.96 180.92 144.24 180.92 149.71 176.23 146.96" class="cls-12"/><polygon points="185.61 146.96 180.92 144.24 180.92 149.71 185.61 146.96" class="cls-13"/><path d="M186.56,159.29c-2.78-.44-2.89-2.44-2.89-5.67h-5.52c0,3.23-.09,5.23-2.87,5.67a1.58,1.58,0,0,0-1.4,1.57H188A1.57,1.57,0,0,0,186.56,159.29Z" class="cls-16"/><rect width="95" height="95" x="226.33" y="90.86" class="cls-1"/><rect width="95" height="95" x="226.33" y="90.86" class="cls-7"/><rect width="15.46" height="10.32" x="281.93" y="119.63" class="cls-17" rx=".52"/><polygon points="292.24 123.28 292.24 126.3 289.67 127.79 289.67 124.8 292.24 123.28" class="cls-11"/><polygon points="292.24 123.28 289.67 124.8 287.08 123.28 289.67 121.77 292.24 123.28" class="cls-12"/><polygon points="289.67 124.8 289.67 127.79 287.08 126.3 287.08 123.28 289.67 124.8" class="cls-13"/><rect width="15.46" height="10.32" x="288" y="125.55" class="cls-18" rx=".52"/><polygon points="298.31 129.22 298.31 132.21 295.74 133.73 295.74 130.72 298.31 129.22" class="cls-11"/><polygon points="298.31 129.22 295.74 130.72 293.15 129.22 295.74 127.7 298.31 129.22" class="cls-12"/><polygon points="295.74 130.72 295.74 133.73 293.15 132.21 293.15 129.22 295.74 130.72" class="cls-13"/><rect width="15.46" height="10.32" x="292.46" y="131.3" class="cls-19" rx=".52"/><polygon points="302.77 134.97 302.77 137.96 300.2 139.48 300.2 136.47 302.77 134.97" class="cls-11"/><polygon points="302.77 134.97 300.2 136.48 297.62 134.97 300.2 133.45 302.77 134.97" class="cls-12"/><polygon points="300.2 136.48 300.2 139.48 297.62 137.96 297.62 134.97 300.2 136.48" class="cls-13"/><polygon points="297.62 137.96 300.2 136.47 300.2 139.48 297.62 137.96" class="cls-12"/><polygon points="302.77 137.96 300.2 136.47 300.2 139.48 302.77 137.96" class="cls-13"/><path d="M303.29,144.75c-1.53-.24-1.53-1.34-1.53-3.05H298.7c0,1.77,0,2.87-1.52,3.05a.91.91,0,0,0-.77.88h7.65A.91.91,0,0,0,303.29,144.75Z" class="cls-20"/><rect width="28.14" height="18.76" x="238.43" y="122.86" class="cls-21" rx=".94"/><polygon points="257.19 129.5 257.19 134.96 252.5 137.71 252.5 132.24 257.19 129.5" class="cls-11"/><polygon points="257.19 129.5 252.5 132.25 247.81 129.5 252.5 126.76 257.19 129.5" class="cls-12"/><polygon points="252.5 132.25 252.5 137.71 247.81 134.96 247.81 129.5 252.5 132.25" class="cls-13"/><polygon points="247.81 134.96 252.5 132.24 252.5 137.71 247.81 134.96" class="cls-12"/><polygon points="257.19 134.96 252.5 132.24 252.5 137.71 257.19 134.96" class="cls-13"/><path d="M258.14,147.29c-2.78-.44-2.89-2.44-2.89-5.67h-5.52c0,3.23-.09,5.23-2.88,5.67a1.56,1.56,0,0,0-1.39,1.57h14.07A1.56,1.56,0,0,0,258.14,147.29Z" class="cls-22"/><line x1="203.19" x2="203.19" y1="91.21" y2="64.14" class="cls-3"/><line x1="195.67" x2="195.67" y1="85.68" y2="73.98" class="cls-3"/><polygon points="198.66 74.86 195.67 69.68 192.68 74.86 198.66 74.86" class="cls-5"/><line x1="210.72" x2="210.72" y1="81.37" y2="80.62" class="cls-3"/><line x1="210.72" x2="210.72" y1="78.19" y2="71.64" class="cls-23"/><line x1="210.72" x2="210.72" y1="70.43" y2="69.68" class="cls-3"/><polygon points="213.71 80.5 210.72 85.68 207.73 80.5 213.71 80.5" class="cls-5"/><line x1="243.85" x2="243.85" y1="91.21" y2="64.14" class="cls-3"/><line x1="236.33" x2="236.33" y1="85.68" y2="73.98" class="cls-3"/><polygon points="239.32 74.86 236.33 69.68 233.34 74.86 239.32 74.86" class="cls-5"/><line x1="251.38" x2="251.38" y1="81.37" y2="80.62" class="cls-3"/><line x1="251.38" x2="251.38" y1="78.19" y2="71.64" class="cls-23"/><line x1="251.38" x2="251.38" y1="70.43" y2="69.68" class="cls-3"/><polygon points="254.37 80.5 251.38 85.68 248.39 80.5 254.37 80.5" class="cls-5"/><line x1="84.57" x2="84.57" y1="110.86" y2="19.87" class="cls-24"/><line x1="78.2" x2="78.2" y1="79.27" y2="67.58" class="cls-24"/><polygon points="81.2 78.4 78.2 83.58 75.21 78.4 81.2 78.4" class="cls-25"/><line x1="91.31" x2="91.31" y1="83.58" y2="82.83" class="cls-24"/><line x1="91.31" x2="91.31" y1="80.4" y2="73.85" class="cls-26"/><line x1="91.31" x2="91.31" y1="72.63" y2="71.88" class="cls-24"/><polygon points="94.3 72.76 91.31 67.58 88.32 72.76 94.3 72.76" class="cls-25"/><line x1="225.03" x2="225.03" y1="38.29" y2="18.79" class="cls-3"/><line x1="167.34" x2="178.46" y1="222.93" y2="222.93" class="cls-3"/><polygon points="168.21 225.93 163.03 222.93 168.21 219.94 168.21 225.93" class="cls-5"/><path d="M221.15,41,183.41,29.65a4.3,4.3,0,0,1-2.88-3.86v-7" class="cls-3"/><path d="M229.35,41l43.28-11.43a4.1,4.1,0,0,0,2.9-3.76v-7" class="cls-3"/><circle cx="79.53" cy="200.49" r="1.67" class="cls-27"/><circle cx="74.18" cy="200.5" r="1.67" class="cls-28"/><circle cx="68.84" cy="200.5" r="1.67" class="cls-29"/><path d="M70.06,207.2l-1,1a.43.43,0,0,1-.61,0h0l-7.1-7.08a.86.86,0,0,1,0-1.22h0l1-1h0l7.71,7.69a.43.43,0,0,1,0,.61Z" class="cls-11"/><path d="M69,192.86l1,1a.43.43,0,0,1,0,.61h0L62.34,202h0l-1-1a.87.87,0,0,1,0-1.23h0l7-7a.44.44,0,0,1,.61,0Z" class="cls-30"/><path d="M85.9,198.88l1,1a.86.86,0,0,1,0,1.22h0l-7.09,7.08a.44.44,0,0,1-.62,0h0l-1-1a.45.45,0,0,1,0-.61h0l7.7-7.69Z" class="cls-11"/><path d="M86.86,201.06l-1,1h0l-7.58-7.6a.43.43,0,0,1,0-.61h0l1-1a.43.43,0,0,1,.61,0h0l7,7a.87.87,0,0,1,0,1.23h0Z" class="cls-30"/><path d="M69.48,46.35,83.93,31.9a1,1,0,0,1,1.41,0l0,0h0L99.85,46.35a1,1,0,0,1,.05,1.41l-.05.05h0L85.39,62.3a1,1,0,0,1-1.41,0l0,0L69.48,47.83a1,1,0,0,1,0-1.41s0,0,0-.05Z" class="cls-31"/><path d="M88.46,38.48,84.8,34.85a.2.2,0,0,0-.27,0l-3.65,3.63a.17.17,0,0,0,.14.31h2.13a.2.2,0,0,1,.19.19h0v3.45a.21.21,0,0,0,.19.19H85.8a.2.2,0,0,0,.19-.19h0V39a.21.21,0,0,1,.19-.19h2.14a.17.17,0,0,0,.21-.12h0A.19.19,0,0,0,88.46,38.48Z" class="cls-32"/><path d="M76.06,43l-3.62,3.66a.19.19,0,0,0,0,.26l3.62,3.64a.19.19,0,0,0,.27,0h0a.17.17,0,0,0,0-.14V48.28a.2.2,0,0,1,.19-.19H80a.18.18,0,0,0,.17-.17V45.63a.18.18,0,0,0-.06-.24H76.63a.17.17,0,0,1-.19-.15h0V43.11a.21.21,0,0,0-.12-.25.19.19,0,0,0-.25.12Z" class="cls-32"/><path d="M93.41,50.54l3.67-3.65a.19.19,0,0,0,0-.26L93.41,43a.18.18,0,0,0-.25,0h0a.22.22,0,0,0-.05.11v2.16a.18.18,0,0,1-.17.17H89.47a.18.18,0,0,0-.17.17V47.9a.17.17,0,0,0,.15.19h3.47a.19.19,0,0,1,.18.19v2.14a.21.21,0,0,0,.22.16Z" class="cls-32"/><path d="M89.47,47.09a4.81,4.81,0,1,0-6.09,4.6v1.64a2.94,2.94,0,1,0,2.7,0V51.6A4.76,4.76,0,0,0,89.47,47.09Z" class="cls-1"/><circle id="e99c3387-15c3-4f28-bd4b-cb209b430e06" cx="84.68" cy="47.08" r="2.79" class="cls-33"/><rect width="35" height="20.86" x="163" class="cls-1"/><rect width="35" height="20.86" x="163" class="cls-7"/><rect width="35" height="20.86" x="66.33" class="cls-1"/><rect width="35" height="20.86" x="66.33" class="cls-34"/><rect width="35" height="20.86" x="208.03" class="cls-1"/><rect width="35" height="20.86" x="208.03" class="cls-7"/><rect width="61.35" height="20.86" x="253.03" class="cls-1"/><rect width="61.35" height="20.86" x="253.03" class="cls-7"/><line x1="127.18" x2="127.18" y1="79.27" y2="67.58" class="cls-35"/><polygon points="130.17 78.4 127.18 83.58 124.19 78.4 130.17 78.4" class="cls-36"/><line x1="140.93" x2="140.93" y1="83.58" y2="82.83" class="cls-35"/><line x1="140.93" x2="140.93" y1="80.4" y2="73.85" class="cls-37"/><line x1="140.93" x2="140.93" y1="72.63" y2="71.88" class="cls-35"/><polygon points="143.93 72.76 140.93 67.58 137.94 72.76 143.93 72.76" class="cls-36"/><line x1="134.06" x2="134.06" y1="135" y2="19.86" class="cls-35"/><rect width="23.5" height="20.86" x="122.83" class="cls-1"/><rect width="23.5" height="20.86" x="122.83" class="cls-38"/><rect width="70" height="10" x="190.03" y="53.97" class="cls-1"/><rect width="70" height="10" x="190.03" y="53.97" class="cls-39"/><g id="ad94e297-0e86-4eaf-aac0-d146ee9aea65"><path d="M221,54.32l-4.68-4.84a2.29,2.29,0,0,1-.78.14,2.43,2.43,0,1,1,2.24-3.33h4.62v1.62h-4.55a3.68,3.68,0,0,1-.26.57l4.33,4.46,2.34-3.56V38.19h-3.15l4-4,3.94,4H225.9v8.74l5.92-9-6-6a1,1,0,0,0-1.41-.06l-.06.06h0l-14.5,14.43a1,1,0,0,0,0,1.41l0,0h0l14.47,14.47-5.17-5.16Z" class="cls-40"/><path d="M224.22,54.53V49.36l-2.34,3.58,1.72,1.85A1.61,1.61,0,0,1,224.22,54.53Z" class="cls-41"/><path d="M240.24,46.36l-8.48-8.48-5.92,9v7.61a1.86,1.86,0,0,1,.53.3l6.22-6.29a2.91,2.91,0,0,1-.31-.64h-4.67V46.29h4.74a2.42,2.42,0,1,1,2.24,3.33,2.54,2.54,0,0,1-.67-.11l-6.62,6.67a2.6,2.6,0,0,1,.11.62,2.43,2.43,0,0,1-4.86.19h0a2.3,2.3,0,0,1,.14-.9L221,54.37l-1.84,2.76,5.17,5.17a1,1,0,0,0,1.41,0l0,0,14.48-14.48a1,1,0,0,0,.05-1.41s0,0-.05,0Z" class="cls-41"/><path d="M232.35,46.29h-4.74v1.62h4.67a2.53,2.53,0,0,1-.12-.72A2.3,2.3,0,0,1,232.35,46.29Z" class="cls-42"/><path d="M217.81,47.91h4.55V46.29h-4.62a2.3,2.3,0,0,1,.19.9A2.22,2.22,0,0,1,217.81,47.91Z" class="cls-42"/><path d="M227.3,56.18l6.62-6.67a2.43,2.43,0,0,1-1.33-1l-6.22,6.29A2.21,2.21,0,0,1,227.3,56.18Z" class="cls-42"/><path d="M223.65,54.79l-1.72-1.85-4.38-4.46a2.46,2.46,0,0,1-1.27,1L221,54.32,222.69,56A2.3,2.3,0,0,1,223.65,54.79Z" class="cls-42"/><path d="M229,38.19l-3.92-4-4,4h3.15V54.53a1.35,1.35,0,0,0-.57.26,2.28,2.28,0,0,0-1,1.3,2.41,2.41,0,0,0,4.57,1.54c0-.05,0-.09,0-.14a2.31,2.31,0,0,0,.11-.69,2.6,2.6,0,0,0-.11-.62,2.21,2.21,0,0,0-.93-1.34,1.86,1.86,0,0,0-.53-.3V38.19Zm-3.92,20a1.34,1.34,0,1,1,1.34-1.34h0a1.34,1.34,0,0,1-1.37,1.29Z" class="cls-1"/><path d="M217.55,48.48a3.68,3.68,0,0,0,.26-.57,2.22,2.22,0,0,0,.12-.72,2.3,2.3,0,0,0-.19-.9,2.41,2.41,0,1,0-2.24,3.33,2.29,2.29,0,0,0,.78-.14A2.46,2.46,0,0,0,217.55,48.48Zm-2.05,0a1.35,1.35,0,1,1,1.34-1.36v0h0a1.33,1.33,0,0,1-1.27,1.39h-.07Z" class="cls-1"/><path d="M233.92,49.51a2.54,2.54,0,0,0,.67.11,2.43,2.43,0,1,0-2.24-3.33,2.3,2.3,0,0,0-.19.9,2.53,2.53,0,0,0,.12.72,2.91,2.91,0,0,0,.31.64A2.48,2.48,0,0,0,233.92,49.51Zm.67-3.65a1.35,1.35,0,1,1-.3,0Z" class="cls-1"/><path d="M225.05,55.46a1.34,1.34,0,1,0,1.34,1.34h0A1.34,1.34,0,0,0,225.05,55.46Z" class="cls-43"/><circle cx="215.5" cy="47.19" r="1.34" class="cls-43"/><path d="M234.59,48.53a1.35,1.35,0,1,0-1.34-1.36v0h0A1.34,1.34,0,0,0,234.59,48.53Z" class="cls-43"/></g></g><g id="Text"><text class="cls-44" transform="translate(109.3 168.34) scale(0.99 1)">Виртуальная<tspan x="7.95" y="9.6">машина</tspan></text><text class="cls-44" transform="translate(158.3 168.34) scale(0.99 1)">Виртуальная<tspan x="7.95" y="9.6">машина</tspan></text><text class="cls-45" transform="translate(229.74 165.76) scale(0.99 1)">Виртуальная<tspan x="8.29" y="9.6">машина</tspan></text><text class="cls-46" transform="translate(284.74 165.95) scale(0.99 1)">VMSS</text><text class="cls-47" transform="translate(260.17 14.08)">Префикс</text><text class="cls-47" transform="translate(217.23 14.08)">PIP</text><text class="cls-47" transform="translate(172.26 14.08)">PIP</text><text class="cls-47" transform="translate(126.72 14.08)">PIP</text><text class="cls-48" transform="translate(112.18 14.08)">IL</text><text class="cls-47" transform="translate(75.57 14.08)">PIP</text><text class="cls-47" transform="translate(2.23 35.88)">Load Balancer</text><text class="cls-47" transform="translate(244.9 49.72)">N<tspan x="8.98" y="0" class="cls-49">A</tspan><tspan x="15.86" y="0">T</tspan></text><text class="cls-50" transform="translate(151.62 106.02) scale(0.99 1)">Подсеть A</text><text class="cls-51" transform="translate(247.16 105.8)">Подсеть B</text><text class="cls-52" transform="translate(60.92 222.51) scale(0.99 1)">Виртуальная<tspan x="0" y="13.2">Сеть</tspan></text><text class="cls-53" transform="translate(185.35 224.83)">Напра<tspan x="34.51" y="0" class="cls-54">в</tspan><tspan x="40.94" y="0" class="cls-55">ление п</tspan><tspan x="83.57" y="0" class="cls-56">о</tspan><tspan x="90.42" y="0" class="cls-57">т</tspan><tspan x="95.4" y="0" class="cls-58">о</tspan><tspan x="102.35" y="0" class="cls-59">к</tspan><tspan x="108.55" y="0" class="cls-58">а </tspan><tspan x="117.4" y="0" class="cls-60">д</tspan><tspan x="124.22" y="0" class="cls-61">л</tspan><tspan x="130.7" y="0" class="cls-55">я </tspan><tspan x="0" y="13.2">обра</tspan><tspan x="26.95" y="13.2" class="cls-62">щ</tspan><tspan x="36.35" y="13.2" class="cls-58">ен</tspan><tspan x="49.61" y="13.2" class="cls-61">и</tspan><tspan x="56.67" y="13.2" class="cls-55">я (&quot;запрос&quot;)</tspan></text><text class="cls-63" transform="translate(185.26 265.69)"><tspan class="cls-64">Напра<tspan x="34.51" y="0" class="cls-54">в</tspan><tspan x="40.94" y="0" class="cls-55">ление п</tspan><tspan x="83.57" y="0" class="cls-56">о</tspan><tspan x="90.42" y="0" class="cls-57">т</tspan><tspan x="95.4" y="0" class="cls-58">о</tspan><tspan x="102.35" y="0" class="cls-59">к</tspan><tspan x="108.55" y="0" class="cls-58">а </tspan></tspan><tspan x="0" y="13.2" class="cls-65">д</tspan><tspan x="6.82" y="13.2" class="cls-66">л</tspan><tspan x="13.3" y="13.2" class="cls-58">я возвр</tspan><tspan x="54.62" y="13.2" class="cls-67">а</tspan><tspan x="60.65" y="13.2" class="cls-68">т</tspan><tspan x="65.7" y="13.2" class="cls-55">а (&quot;</tspan><tspan x="82.49" y="13.2" class="cls-56">о</tspan><tspan x="89.34" y="13.2">т</tspan><tspan x="94.47" y="13.2" class="cls-58">в</tspan><tspan x="100.81" y="13.2" class="cls-69">е</tspan><tspan x="107.11" y="13.2" class="cls-58">т&quot;)</tspan></text><text class="cls-50" transform="translate(71.03 125.83) scale(0.99 1)">Пул LB</text></g></svg>